<?xml version="1.0" encoding="UTF-8" standalone="no"?>
<!DOCTYPE svg PUBLIC "-//W3C//DTD SVG 1.1//EN" "http://www.w3.org/Graphics/SVG/1.1/DTD/svg11.dtd">
<svg xmlns="http://www.w3.org/2000/svg" version="1.1" viewBox="0 0 698 357">
<path fill="#2aa2d7" d="
  M 645.22 76.24
  C 635.70 79.57 635.18 64.87 644.81 67.98
  A 0.81 0.81 6.0 0 0 645.86 67.13
  L 645.29 60.90
  A 1.17 1.16 89.8 0 1 646.55 59.63
  C 659.04 60.73 672.52 74.79 674.42 87.00
  A 0.61 0.60 75.6 0 1 674.03 87.67
  Q 671.77 88.45 669.51 87.81
  A 0.75 0.70 -85.7 0 1 669.00 87.17
  C 668.08 78.14 657.50 75.77 654.72 86.12
  Q 654.21 88.00 652.49 87.99
  L 647.57 87.97
  Q 645.31 87.96 645.66 85.57
  Q 646.36 80.79 645.76 76.55
  A 0.41 0.40 -14.3 0 0 645.22 76.24
  Z"
/>
<path fill="#5fbe09" d="
  M 664.63 100.04
  C 654.85 96.46 664.05 84.03 670.05 93.79
  A 1.02 0.96 -39.7 0 0 671.62 93.89
  L 677.09 88.11
  A 0.50 0.48 45.0 0 1 677.80 88.12
  L 697.48 108.86
  A 0.52 0.52 46.6 0 1 697.46 109.58
  L 677.83 129.00
  A 0.81 0.79 41.4 0 1 676.78 129.05
  Q 674.50 127.29 673.28 124.96
  A 0.74 0.69 -37.9 0 1 673.41 124.15
  C 676.05 121.24 677.06 116.99 674.04 113.96
  C 670.51 110.42 667.00 112.37 663.25 114.30
  A 0.73 0.66 -34.5 0 1 662.43 114.19
  L 657.28 108.89
  A 0.54 0.52 -44.6 0 1 657.30 108.14
  L 664.77 100.76
  A 0.44 0.43 -57.0 0 0 664.63 100.04
  Z"
/>
<path fill="#c9067e" d="
  M 638.32 123.31
  L 633.59 129.11
  A 0.99 0.97 -47.2 0 1 632.12 129.18
  L 612.55 108.61
  A 0.52 0.51 45.8 0 1 612.55 107.89
  L 631.58 88.83
  A 1.89 1.87 41.1 0 1 634.06 88.67
  Q 635.71 89.94 636.83 92.32
  A 0.84 0.78 -39.7 0 1 636.72 93.17
  C 630.60 100.93 639.54 109.87 646.67 102.96
  A 0.52 0.52 -45.4 0 1 647.39 102.95
  L 652.74 108.17
  A 0.55 0.52 -48.2 0 1 652.76 108.91
  L 646.07 116.65
  A 0.50 0.47 -50.9 0 0 646.12 117.35
  Q 646.72 117.80 648.07 118.66
  C 652.05 121.20 648.93 128.17 643.84 126.92
  C 641.98 126.47 641.07 124.63 639.92 123.30
  A 1.05 1.04 44.2 0 0 638.32 123.31
  Z"
/>
<path fill="#052838" d="
  M 93.2604 137.2226
  A 28.31 28.31 0.0 0 1 64.8026 165.3840
  L 59.3026 165.3552
  A 28.31 28.31 0.0 0 1 31.1413 136.8973
  L 31.1796 129.5774
  A 28.31 28.31 0.0 0 1 59.6374 101.4160
  L 65.1374 101.4448
  A 28.31 28.31 0.0 0 1 93.2987 129.9027
  L 93.2604 137.2226
  Z
  M 76.87 119.50
  C 72.37 112.68 64.72 109.95 56.88 112.24
  C 44.56 115.84 42.87 129.67 44.73 140.23
  C 47.64 156.81 69.10 161.50 77.40 146.30
  C 81.43 138.93 81.56 126.61 76.87 119.50
  Z"
/>
<path fill="#082a3d" d="
  M 158.54 142.81
  C 158.48 164.53 135.50 168.85 119.50 163.96
  C 108.87 160.72 104.75 151.40 104.74 141.00
  Q 104.72 125.23 104.77 109.46
  C 104.82 98.08 117.73 98.62 117.72 109.26
  Q 117.69 137.84 117.85 143.55
  C 118.09 151.94 124.34 155.39 132.05 155.52
  C 144.68 155.73 145.56 145.89 145.51 135.37
  Q 145.44 121.69 145.60 108.08
  C 145.69 100.41 155.35 98.63 157.84 105.17
  Q 158.48 106.87 158.51 111.41
  Q 158.59 127.11 158.54 142.81
  Z"
/>
<path fill="#042734" d="
  M 240.93 152.72
  C 246.09 158.08 256.37 157.44 261.43 152.68
  C 266.56 147.84 262.65 140.81 256.69 139.28
  C 245.35 136.38 226.16 134.17 227.05 117.78
  C 228.21 96.51 269.31 95.50 273.79 115.21
  C 274.63 118.89 270.46 123.63 266.37 122.19
  C 262.09 120.68 261.48 114.13 257.13 111.87
  C 252.34 109.37 243.65 109.56 240.10 114.34
  C 236.35 119.41 242.29 123.46 246.50 124.48
  Q 260.39 127.84 266.70 130.50
  C 278.64 135.54 279.60 151.34 270.59 159.40
  C 263.12 166.08 249.31 166.94 239.73 164.03
  C 233.15 162.04 225.14 154.38 225.68 146.85
  C 226.01 142.22 232.39 139.80 235.69 143.81
  C 237.49 145.99 238.65 150.36 240.93 152.72
  Z"
/>
<path fill="#052838" d="
  M 346.9837 137.0244
  A 28.37 28.37 0.0 0 1 318.5642 165.3448
  L 313.0043 165.3351
  A 28.37 28.37 0.0 0 1 284.6838 136.9156
  L 284.6963 129.7756
  A 28.37 28.37 0.0 0 1 313.1158 101.4552
  L 318.6757 101.4649
  A 28.37 28.37 0.0 0 1 346.9962 129.8844
  L 346.9837 137.0244
  Z
  M 304.71 115.19
  Q 300.24 119.56 298.91 124.23
  C 295.71 135.46 298.49 153.39 312.74 155.23
  C 343.58 159.21 340.04 101.05 308.19 112.97
  Q 306.22 113.71 304.71 115.19
  Z"
/>
<path fill="#082a3d" d="
  M 359.64 104.19
  C 362.23 99.88 368.12 100.50 370.25 104.32
  Q 371.16 105.94 371.27 110.35
  C 371.60 123.60 370.86 133.01 371.63 144.26
  Q 372.23 153.00 380.50 154.97
  C 390.32 157.31 399.06 152.98 399.02 141.75
  Q 398.91 114.43 399.05 108.33
  C 399.23 100.96 408.47 98.18 411.45 105.19
  Q 412.14 106.81 412.13 110.42
  Q 412.12 121.02 412.07 131.62
  Q 411.99 146.49 410.38 151.22
  Q 405.72 164.90 387.96 165.49
  C 368.07 166.15 358.23 158.79 358.21 138.25
  Q 358.19 123.16 358.29 108.96
  Q 358.31 106.39 359.64 104.19
  Z"
/>
<path fill="#052838" d="
  M 487.67 123.23
  C 493.38 101.54 519.01 95.15 535.94 107.55
  C 539.58 110.21 545.70 118.46 542.31 123.14
  Q 539.29 127.30 534.06 124.43
  A 1.82 1.63 87.0 0 1 533.39 123.76
  C 530.96 119.60 527.80 114.02 522.50 112.38
  C 500.81 105.70 494.95 134.47 502.82 147.88
  C 507.00 155.00 515.61 157.10 523.06 154.22
  C 528.85 151.99 530.78 147.58 533.02 142.04
  C 533.86 139.97 536.71 139.21 538.83 139.60
  C 544.31 140.63 544.05 145.81 542.46 150.01
  C 536.12 166.71 512.80 169.70 499.45 160.89
  C 487.55 153.03 484.26 136.16 487.67 123.23
  Z"
/>
<path fill="#082a3d" d="
  M 550.29 108.50
  C 548.43 103.06 554.40 99.77 558.99 102.00
  Q 560.46 102.72 562.52 106.01
  Q 569.08 116.54 575.65 126.83
  A 0.39 0.39 45.1 0 0 576.31 126.83
  Q 583.41 115.66 590.65 104.60
  C 594.33 98.99 602.31 100.61 601.78 107.76
  Q 601.63 109.85 598.16 114.87
  Q 590.16 126.46 582.24 138.12
  A 1.62 1.54 -30.0 0 0 581.97 139.03
  Q 582.19 146.67 582.15 154.26
  C 582.13 159.11 582.63 163.00 578.64 164.82
  C 573.79 167.04 569.25 164.04 569.26 158.50
  Q 569.27 148.53 569.20 138.56
  A 1.68 1.60 29.4 0 0 568.92 137.65
  L 552.41 112.84
  Q 551.10 110.87 550.29 108.50
  Z"
/>
<path fill="#082a3d" d="
  M 217.56 103.03
  Q 221.52 105.48 219.92 109.68
  C 218.26 114.03 204.61 112.78 200.24 112.42
  A 0.46 0.46 2.3 0 0 199.74 112.88
  Q 199.78 133.97 199.72 155.12
  C 199.71 161.40 199.07 166.56 191.25 165.25
  Q 188.07 164.71 187.31 161.58
  Q 186.82 159.54 186.81 156.75
  Q 186.76 134.78 186.74 113.62
  A 1.26 1.26 86.9 0 0 185.35 112.37
  Q 177.94 113.15 171.02 112.40
  C 166.69 111.92 164.46 108.22 167.06 104.45
  Q 168.57 102.25 171.24 102.25
  L 214.87 102.27
  A 5.16 5.13 60.6 0 1 217.56 103.03
  Z"
/>
<path fill="#082a3d" d="
  M 462.90 136.99
  Q 472.99 144.58 477.93 156.91
  C 479.58 161.02 479.42 164.26 474.46 165.29
  C 469.85 166.24 467.78 163.99 465.35 160.13
  C 461.59 154.13 456.12 143.14 450.69 139.79
  Q 445.81 136.78 439.29 137.98
  A 0.62 0.61 85.5 0 0 438.79 138.58
  Q 438.72 146.93 438.75 155.29
  C 438.77 161.52 438.30 166.48 430.52 165.19
  C 427.33 164.66 426.37 162.77 426.10 159.62
  C 425.56 153.31 426.07 145.89 425.98 140.80
  Q 425.75 127.53 425.75 114.25
  C 425.75 109.51 425.30 102.37 432.26 102.30
  Q 445.71 102.16 459.18 102.40
  C 481.83 102.81 485.07 132.27 463.20 135.77
  Q 461.61 136.02 462.90 136.99
  Z
  M 462.75 125.48
  C 467.08 119.73 463.84 112.83 456.82 112.11
  Q 450.48 111.46 439.37 111.84
  A 0.53 0.52 -1.1 0 0 438.86 112.36
  L 438.85 128.30
  A 0.55 0.54 2.3 0 0 439.36 128.84
  Q 449.59 129.73 458.66 128.02
  Q 461.19 127.54 462.75 125.48
  Z"
/>
<path fill="#ee651c" d="
  M 669.84 124.37
  L 675.16 129.25
  A 0.68 0.62 44.0 0 1 675.22 130.20
  C 666.48 138.67 644.32 138.31 635.51 130.85
  A 0.57 0.55 37.4 0 1 635.40 130.11
  Q 636.70 128.19 638.54 127.00
  A 0.76 0.73 45.2 0 1 639.37 127.02
  Q 647.79 132.84 652.11 123.92
  A 1.54 1.52 54.0 0 0 652.25 122.99
  Q 651.70 119.58 649.83 117.26
  A 1.35 1.33 48.4 0 1 649.92 115.47
  L 654.48 110.95
  A 1.15 1.14 -44.8 0 1 656.09 110.95
  L 662.89 117.80
  A 1.00 0.98 34.6 0 0 664.50 117.52
  C 668.51 108.55 678.70 119.52 669.95 123.79
  A 0.37 0.34 -36.4 0 0 669.84 124.37
  Z"
/>
<path fill="#5e5f61" d="
  M 55.63 180.61
  A 3.44 3.30 1.1 0 1 57.46 182.44
  L 66.25 204.27
  A 1.96 1.90 -37.8 0 1 65.98 206.17
  C 62.47 210.69 60.38 203.31 59.43 201.23
  A 0.79 0.79 -12.2 0 0 58.71 200.77
  L 49.28 200.77
  A 0.79 0.77 12.4 0 0 48.57 201.21
  C 47.85 202.73 44.68 212.05 41.83 205.44
  A 1.25 1.15 -48.6 0 1 41.81 204.52
  Q 45.82 193.49 50.41 182.74
  C 51.39 180.44 53.42 179.69 55.63 180.61
  Z
  M 50.18 196.05
  A 0.52 0.52 8.6 0 0 50.67 196.74
  L 57.12 196.76
  A 0.52 0.52 -9.9 0 0 57.61 196.06
  L 54.40 186.87
  A 0.52 0.52 0.0 0 0 53.42 186.87
  L 50.18 196.05
  Z"
/>
<rect fill="#5e5f61" x="77.25" y="180.26" width="4.74" height="27.20" rx="2.32"/>
<rect fill="#5e5f61" x="94.75" y="180.26" width="4.74" height="27.22" rx="2.32"/>
<path fill="#082a3d" d="
  M 304.01 195.81
  L 303.78 205.24
  A 1.42 0.97 74.9 0 1 303.48 206.10
  C 300.36 209.48 298.48 206.35 298.48 203.30
  Q 298.51 193.66 298.51 184.03
  C 298.51 181.80 299.99 179.01 302.44 180.53
  Q 304.22 181.63 304.12 183.97
  L 303.84 190.40
  A 0.53 0.50 1.0 0 0 304.37 190.92
  L 314.69 190.95
  A 0.85 0.82 85.0 0 0 315.50 189.95
  Q 314.70 185.57 315.85 181.54
  A 1.33 1.24 84.7 0 1 316.43 180.79
  C 319.42 179.11 320.77 181.32 320.76 184.05
  Q 320.73 194.51 320.77 204.96
  A 1.73 1.52 65.2 0 1 320.50 205.88
  Q 318.20 209.28 315.69 205.93
  A 1.60 1.46 -66.5 0 1 315.38 205.02
  L 315.16 195.87
  A 0.53 0.51 89.4 0 0 314.65 195.35
  L 304.56 195.30
  A 0.54 0.53 1.6 0 0 304.01 195.81
  Z"
/>
<rect fill="#5e5f61" x="-2.50" y="-13.60" transform="translate(417.25,193.87) rotate(0.1)" width="5.00" height="27.20" rx="2.44"/>
<path fill="#5e5f61" d="
  M 487.56 187.73
  L 489.75 187.96
  A 1.00 0.97 -11.9 0 1 490.50 188.43
  Q 492.18 191.25 487.67 191.63
  A 0.81 0.78 -2.0 0 0 486.93 192.40
  L 486.75 205.24
  Q 486.71 207.98 484.08 207.46
  C 480.81 206.81 481.99 195.04 481.94 192.15
  A 0.64 0.55 6.8 0 0 481.44 191.61
  L 479.22 191.12
  A 0.89 0.71 87.6 0 1 478.64 190.46
  Q 477.95 187.28 480.94 187.68
  A 0.97 0.97 -86.7 0 0 482.04 186.70
  Q 481.96 181.62 485.35 180.73
  Q 489.49 179.63 491.19 180.55
  Q 494.08 182.11 491.66 183.80
  A 1.14 0.99 32.7 0 1 490.76 183.93
  Q 486.30 182.74 486.98 187.19
  A 0.65 0.63 -1.0 0 0 487.56 187.73
  Z"
/>
<circle fill="#5e5f61" cx="131.25" cy="182.87" r="2.47"/>
<path fill="#001821" d="
  M 339.50 196.31
  L 339.31 205.02
  A 1.73 0.94 76.9 0 1 339.06 205.94
  Q 336.66 209.29 334.27 205.88
  A 1.64 1.52 -64.3 0 1 333.99 204.97
  L 334.02 183.37
  Q 334.02 180.87 336.52 180.80
  Q 342.78 180.62 348.56 180.82
  C 356.91 181.10 358.24 192.54 349.73 194.87
  Q 348.84 195.11 349.57 195.68
  Q 354.28 199.30 355.86 205.05
  A 1.22 1.12 54.2 0 1 355.75 205.97
  C 354.03 208.92 351.52 207.31 350.21 205.08
  C 347.91 201.18 345.63 195.23 340.07 195.75
  A 0.63 0.57 -2.3 0 0 339.50 196.31
  Z
  M 349.64 189.63
  C 351.98 183.74 342.66 184.60 339.89 184.84
  A 0.60 0.55 -2.9 0 0 339.34 185.39
  L 339.34 191.36
  A 0.55 0.52 89.0 0 0 339.88 191.91
  L 347.02 191.69
  Q 348.84 191.63 349.64 189.63
  Z"
/>
<path fill="#5e5f61" d="
  M 467.05 187.66
  L 469.23 188.00
  A 0.96 0.76 81.7 0 1 469.89 188.62
  Q 470.97 191.77 467.09 191.63
  A 0.50 0.46 1.2 0 0 466.57 192.09
  L 466.55 202.44
  Q 466.55 204.63 468.53 203.60
  Q 470.83 202.40 471.60 204.13
  Q 472.55 206.28 470.27 206.87
  C 458.60 209.87 461.57 199.15 461.48 192.57
  A 1.02 0.85 -77.4 0 0 461.07 191.77
  Q 460.44 191.36 459.70 191.27
  A 1.01 0.77 -5.1 0 1 458.97 190.81
  Q 457.58 188.02 460.90 187.66
  A 0.60 0.54 -3.1 0 0 461.43 187.13
  L 461.53 183.05
  A 1.78 1.01 75.7 0 1 461.78 182.13
  Q 463.09 180.27 465.29 181.33
  A 1.10 0.73 15.8 0 1 465.89 182.03
  L 466.60 187.19
  A 0.54 0.53 -89.4 0 0 467.05 187.66
  Z"
/>
<rect fill="#5e5f61" x="128.74" y="187.44" width="5.00" height="20.02" rx="2.39"/>
<path fill="#5e5f61" d="
  M 151.93 189.70
  C 154.09 186.10 161.01 186.83 162.93 190.55
  C 164.54 193.66 163.71 200.91 163.83 204.79
  A 1.67 1.44 63.9 0 1 163.59 205.71
  Q 161.45 209.09 159.48 206.47
  C 158.08 204.60 158.76 196.72 158.62 193.87
  Q 158.53 191.85 156.56 191.40
  C 149.27 189.71 151.45 202.09 150.79 206.10
  A 1.18 1.08 80.5 0 1 150.29 206.87
  C 147.57 208.61 146.25 206.67 146.25 204.09
  Q 146.24 196.44 146.26 188.80
  A 1.13 1.11 -12.3 0 1 146.93 187.78
  Q 150.35 186.25 150.84 189.49
  Q 151.09 191.11 151.93 189.70
  Z"
/>
<path fill="#5e5f61" d="
  M 211.29 197.41
  A 10.06 10.06 0.0 0 1 201.23 207.47
  A 10.06 10.06 0.0 0 1 191.17 197.41
  A 10.06 10.06 0.0 0 1 201.23 187.35
  A 10.06 10.06 0.0 0 1 211.29 197.41
  Z
  M 201.2875 204.0697
  A 6.59 4.89 89.5 0 0 206.1198 197.4373
  A 6.59 4.89 89.5 0 0 201.1725 190.8903
  A 6.59 4.89 89.5 0 0 196.3402 197.5227
  A 6.59 4.89 89.5 0 0 201.2875 204.0697
  Z"
/>
<path fill="#5e5f61" d="
  M 233.48 191.84
  C 225.43 187.90 227.32 202.46 226.86 205.98
  A 1.10 1.00 78.8 0 1 226.39 206.76
  C 223.24 208.80 222.26 206.01 222.26 203.48
  Q 222.26 196.52 222.23 189.53
  A 1.68 1.42 66.7 0 1 222.51 188.61
  Q 224.27 186.20 226.46 188.41
  A 1.27 0.71 -77.0 0 1 226.71 189.27
  Q 226.70 189.56 226.81 189.82
  A 0.43 0.37 -34.7 0 0 227.46 189.89
  C 230.89 186.78 235.93 186.15 238.56 190.11
  C 240.67 193.28 239.72 200.99 239.79 204.96
  A 1.67 1.47 64.5 0 1 239.53 205.88
  C 233.93 214.01 234.78 194.58 234.70 193.61
  A 2.19 2.18 -79.6 0 0 233.48 191.84
  Z"
/>
<path fill="#5e5f61" d="
  M 252.24 202.14
  C 245.65 189.95 264.71 180.33 269.68 193.73
  C 272.23 200.58 260.49 198.47 257.17 198.52
  A 0.97 0.97 80.7 0 0 256.26 199.79
  Q 258.22 205.80 263.51 203.63
  C 264.60 203.19 270.07 197.41 269.62 202.81
  A 1.59 1.38 -24.8 0 1 269.23 203.68
  C 264.11 209.34 255.92 208.95 252.24 202.14
  Z
  M 256.60 193.75
  Q 255.38 195.75 257.62 195.72
  L 264.64 195.65
  A 0.51 0.50 87.8 0 0 265.13 195.11
  C 264.88 190.02 259.22 189.44 256.60 193.75
  Z"
/>
<path fill="#5e5f61" d="
  M 389.33 205.30
  L 388.78 212.72
  A 1.44 0.76 82.1 0 1 388.47 213.58
  C 385.20 216.85 384.20 213.34 384.22 210.77
  Q 384.29 200.24 384.24 189.74
  Q 384.22 185.89 387.80 187.98
  Q 388.69 188.49 388.79 189.46
  A 0.96 0.43 88.5 0 0 389.16 190.23
  Q 389.29 190.27 389.43 190.26
  A 0.69 0.43 -66.9 0 0 389.85 189.97
  Q 391.17 188.11 393.23 187.81
  C 402.29 186.50 404.50 194.77 402.70 201.74
  C 401.22 207.50 393.96 209.28 389.79 205.17
  Q 389.37 204.76 389.33 205.30
  Z
  M 393.7590 203.7900
  A 6.33 4.66 90.1 0 0 398.4300 197.4681
  A 6.33 4.66 90.1 0 0 393.7810 191.1300
  A 6.33 4.66 90.1 0 0 389.1100 197.4519
  A 6.33 4.66 90.1 0 0 393.7590 203.7900
  Z"
/>
<path fill="#5e5f61" d="
  M 444.49 193.90
  Q 444.28 192.48 443.29 191.37
  A 1.60 1.45 -13.3 0 0 442.45 190.91
  Q 437.70 190.04 435.29 194.10
  A 1.01 0.84 -72.6 0 1 434.55 194.58
  Q 432.91 194.63 432.26 193.24
  Q 431.00 190.56 433.92 189.07
  C 438.80 186.58 449.66 185.51 449.15 194.27
  Q 448.82 199.79 450.08 205.20
  A 1.51 1.14 57.9 0 1 450.00 206.15
  C 448.52 208.99 446.06 206.76 444.83 205.31
  A 0.53 0.53 -38.5 0 0 444.11 205.23
  C 441.04 207.52 435.32 208.84 432.57 205.42
  C 430.76 203.17 430.77 199.77 433.10 197.86
  C 435.27 196.06 441.06 195.36 443.95 194.68
  A 0.70 0.70 79.7 0 0 444.49 193.90
  Z
  M 436.41 200.80
  C 435.09 206.03 445.15 205.87 444.35 198.34
  A 0.49 0.47 81.2 0 0 443.79 197.91
  L 438.22 198.97
  A 2.52 2.24 -87.0 0 0 436.41 200.80
  Z"
/>
<path fill="#5e5f61" d="
  M 519.12 197.40
  A 10.07 10.07 0.0 0 1 509.05 207.47
  A 10.07 10.07 0.0 0 1 498.98 197.40
  A 10.07 10.07 0.0 0 1 509.05 187.33
  A 10.07 10.07 0.0 0 1 519.12 197.40
  Z
  M 509.0929 204.0500
  A 6.57 4.90 89.8 0 0 513.9700 197.4629
  A 6.57 4.90 89.8 0 0 509.0471 190.9100
  A 6.57 4.90 89.8 0 0 504.1700 197.4971
  A 6.57 4.90 89.8 0 0 509.0929 204.0500
  Z"
/>
<path fill="#5e5f61" d="
  M 535.16 189.32
  C 539.86 184.55 547.22 190.23 541.98 192.13
  A 1.37 1.11 41.5 0 1 541.06 192.09
  C 530.11 187.57 539.02 213.78 530.57 206.34
  A 1.14 1.09 21.4 0 1 530.18 205.50
  L 530.09 189.67
  A 2.26 2.11 -17.0 0 1 531.15 187.83
  Q 533.84 186.15 534.69 189.20
  A 0.28 0.28 -30.5 0 0 535.16 189.32
  Z"
/>
<path fill="#5e5f61" d="
  M 558.55 189.86
  Q 559.03 189.73 559.36 189.36
  Q 559.82 188.83 560.07 188.69
  Q 565.17 185.89 569.20 189.87
  A 0.51 0.50 45.4 0 0 569.90 189.88
  C 573.27 186.65 581.19 186.36 581.35 192.76
  Q 581.51 199.12 581.50 205.48
  A 1.32 1.18 69.0 0 1 581.17 206.35
  Q 578.89 208.84 576.78 206.09
  A 1.63 1.08 -73.8 0 1 576.50 205.19
  L 576.25 193.24
  A 1.85 1.77 -0.8 0 0 574.38 191.50
  C 565.16 191.56 574.33 207.87 566.97 207.45
  Q 564.72 207.33 564.91 205.09
  Q 565.43 198.71 564.44 192.50
  A 0.82 0.81 4.1 0 0 563.87 191.85
  C 553.38 188.74 562.70 211.06 554.87 207.22
  Q 553.27 206.44 553.28 204.70
  L 553.30 189.79
  A 2.23 2.18 -13.8 0 1 554.52 187.83
  Q 557.19 186.45 557.96 189.46
  A 0.53 0.46 75.4 0 0 558.55 189.86
  Z"
/>
</svg>
