<svg xmlns="http://www.w3.org/2000/svg" xmlns:xlink="http://www.w3.org/1999/xlink" id="Capa_1" x="0px" y="0px" viewBox="0 0 480 480" style="enable-background:new 0 0 480 480;" xml:space="preserve"><style type="text/css">	.st0{fill:url(#SVGID_1_);}</style><linearGradient id="SVGID_1_" gradientUnits="userSpaceOnUse" x1="0" y1="240" x2="480" y2="240"><stop offset="0" style="stop-color:#88B14B" id="id_105"></stop><stop offset="1" style="stop-color:#0C4C8A" id="id_106"></stop></linearGradient><path class="st0" d="M247.7,394.3l-4.7,3.5c-4.6,3.1-10.1,4.8-15.7,4.8c-15.1,0-27.3-12.3-27.3-27.4c0-9.1,4.6-17.7,12.2-22.7  l21.6-16.1l-11.9-7.9l-85.2,7.7c-0.7,0.1-1.4,0-2-0.1L96,329.7v94.6h32c1,0,2,0.2,3,0.6l117.5,47l70.4-19.2L247.7,394.3z   M353.6,336.1c-0.8,0.2-1.6,0.2-2.4,0.2l-80-7.7l-49.8,37c-3,1.9-5,5.1-5.4,8.6c-0.6,6.3,4,11.9,10.2,12.5c2.6,0.3,5.3-0.4,7.5-1.9  l30.4-22.9l9.6,12.8l-12.9,9.7l69.5,56.9l53.7-15.1V330L353.6,336.1z M64,320.2h16v112H64V320.2z M400,320.2h16v112h-16V320.2z   M432,312.2h48v128h-48V312.2z M0,312.2h48v128H0V312.2z M344,8.2v12c0,6.6-5.4,12-12,12c-15.5,0-28,12.5-28,28v12h16v-12  c0-6.6,5.4-12,12-12c15.5,0,28-12.5,28-28v-12C360,8.2,344,8.2,344,8.2z M477.2,186.1l-56-48c-3.4-2.9-8.4-2.5-11.3,0.9  c-1.2,1.4-1.9,3.3-1.9,5.2v16.9l-26.8-23c-3.4-2.9-8.4-2.5-11.3,0.9c-1.2,1.4-1.9,3.3-1.9,5.2v40h-16v-80h8v-16h-5.8  c2.8-4.9,8.1-8,13.8-8c22.1,0,40-17.9,40-40v-16h-16v16c0,13.3-10.7,24-24,24c-14.5,0.1-27.2,9.9-30.9,24H296v16h8v80h-8  c-4.4,0-8,3.6-8,8v80c0,4.4,3.6,8,8,8h176c4.4,0,8-3.6,8-8v-80C480,189.9,479,187.7,477.2,186.1z M336,232.2h-16v-16h16V232.2z   M368,232.2h-16v-16h16V232.2z M416,248.2h-16v-16h16V248.2z M416,216.2h-16v-16h16V216.2z M448,248.2h-16v-16h16V248.2z M448,216.2  h-16v-16h16V216.2z M248,208.2v-16h-16v16h-16v16h16v16h16v-16h16v-16H248z M184,120.2h-72v-48c0-4.4-3.6-8-8-8H80v-32  c0-4.4-3.6-8-8-8h-8v-16H48v16h-8c-4.4,0-8,3.6-8,8v32H8c-4.4,0-8,3.6-8,8v200c0,4.4,3.6,8,8,8h176c4.4,0,8-3.6,8-8v-144  C192,123.8,188.4,120.2,184,120.2z M48,208.2H32v-16h16V208.2z M48,176.2H32v-16h16V176.2z M48,144.2H32v-16h16V144.2z M48,112.2H32  v-16h16V112.2z M80,176.2H64v-16h16V176.2z M80,144.2H64v-16h16V144.2z M80,112.2H64v-16h16V112.2z M144,232.2h-16v-16h16V232.2z   M144,200.2h-16v-16h16V200.2z M144,168.2h-16v-16h16V168.2z M176,232.2h-16v-16h16V232.2z M176,200.2h-16v-16h16V200.2z M176,168.2  h-16v-16h16V168.2z" id="id_104"></path></svg>