<svg xmlns="http://www.w3.org/2000/svg" xmlns:xlink="http://www.w3.org/1999/xlink" id="Layer_1" x="0px" y="0px" viewBox="0 0 227.8818 227.6915" xml:space="preserve"><g><polygon points="94.4853,167.1612 87.206,167.1612 71.538,167.1612 71.538,187.7491 201.5263,187.7491 201.5263,146.7491    90.517,146.7491 93.0947,160.0177  " id="id_109" style="fill: rgb(31, 57, 148);"></polygon><path d="M83.0185,57.6856h73.875v51.0039h-51.8198c1.1279,5.4444,2.0996,11.1875,2.8999,17.251   c0.2764,2.0889,0.0254,4.167-0.7061,6.0811h29.458v-6.6661h-10.332v-10.6679h36.5v-63H76.9243   C78.9023,53.3331,80.9511,55.3067,83.0185,57.6856z" id="id_110" style="fill: rgb(29, 145, 79);"></path><path d="M105.499,135.1837c-2.0332,2.6494-4.9746,4.3496-8.2852,4.7861c-0.5195,0.0693-1.0801,0.1065-1.6406,0.1065   c-2.4629,0-4.7813-0.7276-6.7383-1.9874l1.1123,5.7256h115.1006v82.2998h12v-82.2998h10.834v-9h-122.127   C105.6679,134.9366,105.5908,135.0645,105.499,135.1837z" id="id_111" style="fill: rgb(30, 150, 82);"></path><path d="M34.3603,48.2725l9.1231,30.7813c0,0,0.1914,0.665,0.3906,1.5185c0.1992-0.8535,0.3906-1.5185,0.3906-1.5185l9.123-30.7813   c-2.7578-0.4189-6.0688-0.7695-9.5156-0.7793C40.4267,47.503,37.1181,47.8546,34.3603,48.2725z" id="id_112" style="fill: rgb(30, 72, 143);"></path><path d="M5.7885,123.3653l1.9634,0.6729L0.54,161.1622h21.666v56.5293c0,5.5234,4.4766,10,10,10c5.5215,0,10-4.4766,10-10v-56.5293   h3.334v56.5293c0,5.5234,4.4766,10,10,10c5.5195,0,10-4.4766,10-10v-56.5293h21.666L69.7802,71.4688   c0.1582,0.1953,0.3145,0.375,0.4746,0.5791c6.7163,8.585,14.7676,25.1534,18.8809,56.378   c0.4316,3.2695,3.2246,5.6513,6.4375,5.6513c0.2832,0,0.5703-0.0185,0.8569-0.0566c3.5591-0.4707,6.065-3.7354,5.5962-7.2949   C97.415,91.7882,87.9301,72.6075,78.788,61.9532c-8.4336-9.8711-16.5468-12.0146-18.7168-12.3623   c-0.333-0.082-0.832-0.2021-1.4609-0.3428l-0.3828,0.0772l3.6035,6.0019c0,0-12.8359,22.5821-16.4375,27.4405   c-0.5176,0.6982-0.9067,1.1123-1.1987,1.3212c-0.0694,0.127-0.1743,0.1846-0.3208,0.1573   c-0.1465,0.0273-0.2515-0.0303-0.3208-0.1573c-0.292-0.2089-0.6812-0.623-1.1988-1.3212   c-3.6015-4.8584-16.4375-27.4405-16.4375-27.4405l3.6036-6.0019l-0.3829-0.0772c-1.1533,0.2578-1.8662,0.4463-1.9492,0.4619   c-0.3496,0.1094-6.414,1.6358-12.9511,5.918c-3.2598,2.1543-6.6758,5.0352-9.3829,8.9834   c-2.705,3.9238-4.6035,9.0195-4.5839,14.8223c0,0.8486,0.039,1.7021,0.1191,2.5615c0.0005,0.0068,0.002,0.0127,0.0029,0.0195   c0.3438,3.6592,1.3482,7.4571,3.0982,11.4424c0.1528,0.3486,0.3218,0.7022,0.4868,1.0537   c2.9082,6.211,7.6118,12.8789,14.4805,20.1924c1.2793,1.3584,3.0058,2.044,4.7363,2.044c1.5976,0.0009,3.1973-0.584,4.4531-1.7637   c2.6113-2.461,2.7383-6.5762,0.2793-9.1885l-0.0019-0.002c-10.6177-11.2548-14.1441-19.5898-14.587-24.9287   c-0.0009-0.0097,0-0.0185-0.0009-0.0283c-0.045-0.4941-0.0664-0.9609-0.0664-1.4023c0.0195-3.0762,0.8847-5.3506,2.3183-7.4864   c0.7852-1.1718,1.7949-2.2636,2.916-3.2587l-2.7866,14.3447c0.5249,2.2178,1.6597,5.2295,3.9702,9.0312l2.9512-8.6093   l5.9678,2.0449l-8.1348,7.8076c0.5225,0.8076,1.0859,1.6406,1.7163,2.5137l11.0718-10.627l19.8398,20.6729l-29.0156,27.8476   L4.2431,113.045l5.5918-5.3672c-0.625-0.8154-1.2256-1.6269-1.7998-2.4326l-3.376,3.2393L0,112.9571l3.1523,3.2842l3.7422,3.8984   L5.7885,123.3653z M49.7465,92.7462l-1.3369,3.8994l-6.2339-6.4942L49.7465,92.7462z M36.7031,130.7911l-3.8589-1.3223   l6.4272-6.1699L36.7031,130.7911z" id="id_113" style="fill: rgb(23, 65, 138);"></path><path d="M33.9218,40.5587c0.9878,0.5156,2.0283,0.9551,3.1118,1.3174c0.6402,0.2148,1.2945,0.4033,1.9654,0.5595   c4.0302,0.9385,8.0581,0.6729,11.7109-0.5566c1.0752-0.3613,2.1157-0.8096,3.1162-1.333c1.8838-0.9854,3.6177-2.2461,5.1392-3.7442   c2.8017-2.7578,4.8847-6.3134,5.8423-10.4267C67.499,14.8126,60.3095,3.2579,48.749,0.5645   c-11.5625-2.6914-23.1172,4.5-25.8106,16.0606c-1.7592,7.5527,0.7007,15.1015,5.8399,20.1797   C30.2778,38.2872,32.0039,39.5597,33.9218,40.5587z" id="id_114" style="fill: rgb(24, 69, 148);"></path><path d="M176.1923,95.5821v18.5h-3v18h47v-18h-3v-18.5H176.1923z M178.1914,97.5802h37v16.5019h-37V97.5802z" id="id_115" style="fill: rgb(22, 72, 158);"></path><rect x="181.5263" y="102.4161" width="30.666" height="2" id="id_116" style="fill: rgb(30, 55, 148);"></rect></g></svg>