<svg xmlns="http://www.w3.org/2000/svg" xmlns:xlink="http://www.w3.org/1999/xlink" xml:space="preserve" width="8.33333in" height="8.33333in" style="shape-rendering:geometricPrecision; text-rendering:geometricPrecision; image-rendering:optimizeQuality; fill-rule:evenodd; clip-rule:evenodd" viewBox="0 0 8333 8333"><defs><style type="text/css">       .fil0 {fill:none}    .fil1 {fill:#0B3E3E}     </style></defs><rect class="fil0" width="8333" height="8333" id="id_101"></rect><g id="Layer_x0020_1"><metadata id="CorelCorpID_0Corel-Layer"></metadata><path class="fil1" d="M7595 6717l-4081 0c-69,0 -125,-56 -125,-125l0 -864 -2651 0c-69,0 -125,-56 -125,-125l0 -873c0,-502 446,-919 1023,-988 65,-12 210,-10 282,-10l20 -119c-179,-145 -282,-359 -282,-589l0 -1153c0,-139 116,-255 255,-255l793 0c336,0 611,272 611,608l0 800c0,230 -103,443 -281,589l19 119c74,0 216,-2 282,10 532,63 952,422 1015,870 105,-23 207,-33 320,-34l291 0 28 -101c-263,-166 -424,-452 -424,-763l0 -1420c0,-156 129,-285 288,-285l973 0c396,0 718,325 718,722l0 983c0,310 -161,596 -422,762l27 102 298 0c474,2 952,231 1168,647 69,134 105,277 105,424l0 943c0,69 -56,125 -125,125zm-5689 -4451l1159 0 0 -42c0,-197 -162,-358 -361,-358l-793 0c-1,1 -4,3 -5,5l0 395zm224 1179c8,4 15,9 22,14 77,46 166,73 262,73l143 0c277,0 508,-225 508,-508l0 -508 -1159 0 0 508c0,175 89,330 224,421zm40 297l-10 62 325 252 327 -252 -10 -62c-141,48 -245,40 -388,40 -84,0 -166,-14 -244,-40zm-188 240l-127 0 234 522 218 -270 -325 -252zm-393 20c-372,69 -726,346 -726,728l0 748 2542 0c67,-348 336,-640 702,-791 -26,-362 -368,-618 -724,-685l-354 789c-39,85 -154,99 -212,28l-333 -408 -329 407c-59,73 -173,57 -211,-27l-355 -789zm1529 -20l-128 0 -327 252 220 270 235 -522zm523 1608c3,23 -2,32 -2,59l0 818 1546 0 92 -791 -17 -26 -71 86c-58,70 -172,57 -210,-29l-395 -876c-247,16 -475,102 -652,247 -172,141 -273,321 -291,512zm1174 -2781l78 0c103,0 185,-35 244,-104 144,-168 228,-168 371,0 60,70 139,104 241,104l545 0 0 -78c0,-260 -210,-472 -468,-472l-973 0c-22,0 -38,19 -38,35l0 515zm78 250l-78 0 0 655c0,252 144,471 355,579 14,4 26,10 37,17 81,35 169,55 262,55l174 0c351,0 651,-286 651,-651l0 -655 -545 0c-215,0 -349,-98 -427,-187 -77,89 -212,187 -429,187zm327 1521l-21 76 356 278 356 -279 -20 -75c-149,43 -271,35 -422,35 -85,0 -169,-12 -249,-35zm-207 248l-156 0 267 593 254 -308 -365 -285zm413 620l129 194 130 -196 -129 -156 -130 158zm425 200l-19 28 92 791 1546 0 0 -818c0,-213 -104,-416 -293,-571 -176,-145 -405,-231 -651,-247l-393 876c-37,85 -151,100 -210,28l-72 -87zm402 -820l-157 0 -362 284 254 309 265 -593zm-817 1639l236 0 -56 -488c-38,21 -85,20 -122,-2l-58 490z" id="id_102" style="fill: rgb(93, 188, 9);"></path></g></svg>